<svg xmlns="http://www.w3.org/2000/svg" width="56" height="44" viewBox="0 0 56 44" fill="none">
<path d="M48.1173 0H7.89533C3.53711 0 0 3.52907 0 7.8774V36.1226C0 40.4709 3.53711 44 7.89533 44H48.1173C52.4755 44 56 40.4709 56 36.1226V7.8774C56 3.52907 52.4755 0 48.1173 0Z" fill="#54CF85"/>
<path d="M42.5827 28.9005C43.7196 27.8418 44.4649 26.3545 44.6165 24.8042C44.6292 24.7412 44.5913 24.6782 44.5281 24.6404C44.4649 24.6026 44.4018 24.6152 44.3512 24.653L43.8333 25.0437C44.1997 24.4891 44.4397 23.9094 44.6039 23.4178C44.9829 22.2709 45.1218 21.0483 45.2482 19.8761C45.2608 19.8131 45.2355 19.7627 45.185 19.7249C45.1345 19.6871 45.0713 19.6871 45.0208 19.6997C44.6797 19.8509 44.3386 20.04 43.9849 20.2921C44.187 19.7123 44.3512 19.0821 44.3007 18.4519C44.2628 17.9351 44.0986 17.4184 43.808 16.889C43.5175 16.3596 43.1006 15.8681 42.6206 15.4774C42.6206 14.948 42.4058 14.3809 42.0142 13.8767C41.6352 13.3852 41.1426 13.0196 40.6625 12.6541C40.6246 12.6289 40.5867 12.6163 40.5362 12.6163C40.4983 12.6163 40.4478 12.6415 40.4225 12.6793C40.3594 12.7676 40.2962 12.8684 40.2583 12.9818C39.513 11.6584 38.275 10.6249 36.8223 10.1334C36.7591 10.1082 36.6959 10.1334 36.658 10.1712C36.6075 10.209 36.5949 10.272 36.6075 10.335C36.6454 10.4485 36.6707 10.5745 36.6959 10.6879C35.9127 10.083 35.0411 9.59138 34.1189 9.21327L34.0052 9.15027C33.7652 9.04943 33.5252 8.9612 33.323 8.82255C33.0578 8.6461 32.8683 8.43185 32.8051 8.20498C32.7798 8.12935 32.704 8.07894 32.6409 8.09155C32.5651 8.09155 32.5019 8.15455 32.4893 8.23017L32.4767 8.33102C32.2493 7.97812 31.9082 7.70081 31.5292 7.52436C32.1861 7.13364 32.6914 6.49084 32.8683 5.74721C32.8809 5.68419 32.8683 5.62121 32.8177 5.5834C32.7672 5.54558 32.704 5.53296 32.6409 5.55816C32.1735 5.78503 31.6682 5.9615 31.1755 6.12535C31.0113 6.18837 30.8344 6.23877 30.6702 6.30179L31.2008 5.0414C31.226 4.97838 31.2134 4.91538 31.1629 4.86497C31.1124 4.81455 31.0492 4.80195 30.986 4.82716C30.1775 5.11705 29.3943 5.54558 28.6111 6.12535C28.6111 6.03712 28.5985 5.93629 28.5858 5.84807C28.5732 5.79765 28.5353 5.74723 28.4848 5.72202C28.4343 5.69681 28.3711 5.70943 28.3332 5.73464L27.8658 6.06231C27.7395 5.86065 27.5879 5.68419 27.3858 5.54555C27.3352 5.50774 27.2594 5.50774 27.2089 5.54555C27.1584 5.58336 27.1205 5.64638 27.1331 5.7094C27.1584 5.87325 27.1584 6.03712 27.1457 6.20097C26.552 5.6212 25.8572 5.14223 25.0993 4.80193C25.0487 4.77672 24.9729 4.78935 24.9224 4.82716C24.8719 4.86497 24.8466 4.92799 24.8592 4.99101C24.935 5.36913 25.0361 5.73461 25.1751 6.10012C24.5813 5.94887 23.975 5.83544 23.3686 5.74721C23.3181 5.73461 23.2549 5.75983 23.2297 5.79764C23.1918 5.83545 23.1791 5.89846 23.1918 5.94888C23.3433 6.62949 23.7097 7.24708 24.2403 7.68822C23.9497 7.80165 23.6844 7.9907 23.4697 8.23017L23.4191 8.04112C23.4065 7.9781 23.356 7.92769 23.2928 7.92769C23.2297 7.91509 23.1665 7.94028 23.1286 7.9907C22.6865 8.63349 21.9159 8.98641 21.1706 9.33931C20.501 9.65441 19.8189 9.9947 19.3009 10.5493C19.2378 10.3854 19.1114 10.272 18.9725 10.2468C18.7451 10.1964 18.5556 10.3476 18.4419 10.4358L16.6607 11.8475C16.3702 12.0743 16.067 12.3264 15.8144 12.6163C15.688 12.755 15.587 12.9062 15.5112 13.0575L15.4859 12.9062C15.4606 12.7802 15.3975 12.7045 15.3091 12.6793C15.208 12.6415 15.1196 12.6793 15.0185 12.7802C14.7153 13.0953 14.4121 13.4356 14.1469 13.8011C13.6163 14.3304 13.2373 15.0615 13.0352 15.9563C12.3657 16.5235 11.8856 17.3049 11.6709 18.1494C11.5067 18.83 11.5067 19.5863 11.6835 20.3047C11.5572 20.2164 11.4309 20.1282 11.2919 20.0526C11.2414 20.0148 11.1024 19.9392 10.9635 19.9896C10.875 20.0274 10.7361 20.1282 10.774 20.4307C10.8877 21.3634 11.0014 22.3213 11.2667 23.2413C11.4688 23.9346 11.772 24.6152 12.1509 25.2454C11.9614 25.1949 11.772 25.1698 11.5825 25.195C11.494 25.2076 11.4309 25.2832 11.4435 25.3588C11.494 26.5057 11.772 27.4762 12.2646 28.2451C12.5931 28.7492 13.0099 29.1651 13.49 29.455L13.2373 29.4298C13.1868 29.4298 13.1363 29.4424 13.0984 29.4803C13.0605 29.5181 13.0478 29.5685 13.0605 29.6189C13.2879 30.7154 13.9321 31.7237 14.829 32.3791C15.7133 33.0219 16.8376 33.337 17.924 33.2614L18.4672 33.5639C17.8356 33.6143 17.1913 33.5639 16.5849 33.4C16.5218 33.3874 16.446 33.4127 16.4081 33.4631C16.3702 33.5261 16.3702 33.6017 16.4081 33.6521C17.1155 34.5848 18.0756 35.4041 19.1241 35.9712C19.4778 36.6896 19.2504 37.6475 18.5935 38.1265C18.543 38.1643 18.5177 38.2273 18.5304 38.2903C18.543 38.3533 18.5809 38.4038 18.644 38.4164C19.541 38.6937 20.501 38.7441 21.4232 38.5802C21.3979 38.6433 21.3979 38.7189 21.4106 38.7819C21.4485 38.9584 21.6127 39.0844 21.878 39.1474C22.2191 39.223 22.5601 39.2608 22.9012 39.2608C24.215 39.2608 25.554 38.7441 26.552 37.8366C26.691 38.0383 26.8931 38.1895 27.1331 38.2525C27.3226 38.3029 27.4994 38.2777 27.6384 38.1895C27.8153 38.0761 27.9037 37.8618 27.9037 37.5719C27.9037 37.5341 27.9037 37.4963 27.9037 37.4459C27.9037 37.3577 27.9037 37.2694 27.9163 37.1938C27.9416 37.2064 27.9669 37.2316 27.9795 37.2694C28.0174 37.3576 28.0174 37.4711 28.0174 37.5971C28.0174 37.7106 28.0047 37.9122 28.1563 38.0383C28.2574 38.1265 28.409 38.1517 28.5985 38.1013C28.8259 38.0383 29.0406 37.9248 29.2048 37.7736C29.5333 38.3029 30.1144 38.7062 30.8344 38.9079C31.5545 39.097 32.2998 39.0718 33.0199 39.034C33.1841 39.0213 33.3609 39.0213 33.5252 38.9457C33.7399 38.8449 33.8789 38.6558 33.8915 38.4542C33.8915 38.429 33.8915 38.4038 33.8915 38.3786C35.1042 38.4542 36.1527 38.4794 37.2265 38.3029C37.2897 38.2903 37.3276 38.2525 37.3528 38.2021C37.3781 38.1517 37.3655 38.0887 37.3276 38.0383C36.7717 37.3451 36.6075 36.3367 36.8981 35.5049C37.8834 35.1898 38.7677 34.5848 39.4246 33.7782C39.4625 33.7404 39.4625 33.6899 39.4625 33.6395C39.4498 33.5891 39.4119 33.5513 39.374 33.5261C39.1214 33.4126 38.8561 33.337 38.5908 33.2866C38.6161 33.2866 38.6413 33.274 38.654 33.274C38.8687 33.2488 39.1087 33.211 39.3235 33.1606C41.1552 32.7698 42.6459 31.207 42.949 29.3542C42.9617 29.2912 42.9364 29.2282 42.8859 29.1904C42.8353 29.1525 42.7722 29.1525 42.709 29.1777C42.1027 29.4802 41.471 29.7323 40.8268 29.9592L41.0415 29.6315C41.5089 29.6441 42.0395 29.4046 42.5827 28.9005ZM36.3927 31.8876C36.2285 31.812 36.0517 31.875 35.9632 31.9128C34.3715 32.48 32.5904 33.1228 31.1629 34.2697C30.9608 33.9798 30.5313 33.8034 30.1523 33.7529C30.0512 33.7403 29.9502 33.7404 29.8491 33.7404C29.4954 33.7404 29.1417 33.816 28.7627 33.8916L28.7248 33.9042C28.3079 33.9924 27.8911 34.0933 27.4742 34.0555C27.1963 34.0303 26.931 33.9546 26.6531 33.8664C26.5646 33.8412 26.4888 33.816 26.4004 33.7908C26.0467 33.6899 25.6298 33.6017 25.2003 33.7026C24.9098 33.7656 24.5813 33.9546 24.4171 34.2445C23.8486 33.5387 23.0528 33.0849 22.4591 32.8203C22.2191 32.7194 21.9664 32.6186 21.7264 32.5178C21.1579 32.3035 20.6274 32.0893 20.1221 31.7364C19.9705 31.6229 19.7683 31.4843 19.541 31.5095C19.4652 31.5095 19.3894 31.5473 19.3262 31.5977C18.8083 30.5894 17.9745 29.8458 16.9639 29.5559C16.9513 28.4593 16.5344 27.3502 15.827 26.5057C15.7259 26.3797 15.5996 26.2537 15.4228 26.2033C15.347 26.178 15.2585 26.178 15.1827 26.2033C15.1196 25.5857 14.9301 25.0311 14.6395 24.5773L14.589 24.5017C14.5132 24.3883 14.4374 24.2749 14.4122 24.1614C14.3869 24.0102 14.4248 23.8463 14.4753 23.6699C14.7659 22.6238 14.968 21.5398 15.069 20.4559C15.0817 20.3677 15.0943 20.1786 14.968 20.0526C14.8922 19.977 14.7911 19.9392 14.6901 19.9518C15.1701 19.2459 15.448 18.4141 15.4859 17.557C15.4859 17.5192 15.4859 17.494 15.4606 17.4688C16.446 16.8008 17.1913 15.8051 17.545 14.6708C17.5577 14.6329 17.5577 14.6077 17.545 14.5699C18.6567 14.1414 19.5789 13.36 20.0715 12.3895C21.1832 12.3264 22.2696 11.9987 23.2297 11.4316C23.457 11.2929 23.735 11.1038 23.8486 10.8266C25.1372 11.066 26.5141 10.6249 27.4237 9.69222C27.7142 9.67962 28.0048 9.64181 28.2827 9.57879C28.6364 9.84347 30.3039 11.0535 31.4787 10.8518C32.5525 11.8475 34.0431 12.4147 35.5085 12.3768C36.0769 13.4986 37.1254 14.343 38.3382 14.6833C38.414 15.4774 38.8687 16.1202 39.2351 16.5235C39.614 16.9394 40.0688 17.2798 40.5236 17.5949C40.511 17.6075 40.511 17.62 40.4983 17.6452C40.2962 18.3889 40.4225 19.2081 40.8268 19.8887C40.7636 19.8635 40.6878 19.8887 40.6499 19.9391C40.612 19.9896 40.5994 20.0652 40.6373 20.1282C40.9278 20.6197 40.9405 21.2373 40.9405 21.8297V22.0314C40.9531 22.649 41.0289 23.4052 41.5089 23.922C41.0289 24.6026 40.7004 25.3966 40.5615 26.2159C40.5236 26.2159 40.4731 26.2285 40.4352 26.2537C39.5382 26.9973 38.9572 28.119 38.8687 29.3038C37.8455 29.8584 36.9359 30.7785 36.3927 31.8876Z" fill="white"/>
<path d="M34.3226 15.5029C38.8198 20.5571 34.4742 28.321 27.9937 28.321C21.5132 28.321 17.1676 20.5571 21.6648 15.5029C15.5507 19.7 18.0519 29.2033 25.1009 31.0434C26.0988 31.3081 28.3348 31.7114 30.8866 31.0434C37.9355 29.1907 40.4368 19.7 34.3226 15.5029Z" fill="white"/>
<path d="M23.0644 16.9644C22.8876 16.9644 22.7107 16.8509 22.6223 16.6997C22.5086 16.5232 22.5086 16.309 22.5086 16.1325V16.0947C22.5086 15.9561 22.5086 15.8174 22.4707 15.704C22.4454 15.6284 22.4833 15.5401 22.5591 15.5023C22.6349 15.4771 22.7233 15.5149 22.7612 15.5905C22.8244 15.7544 22.8244 15.9435 22.8244 16.0947V16.1325C22.8244 16.2712 22.8244 16.4224 22.9002 16.5358C22.9507 16.6114 23.0518 16.6745 23.1276 16.6493C23.1781 16.6241 23.2286 16.5484 23.2792 16.4602L23.7087 15.6409C23.7339 15.5905 23.7718 15.5653 23.8224 15.5653C23.8729 15.5653 23.9234 15.5779 23.9613 15.6157C24.2392 15.9056 24.5677 16.1325 24.8835 16.3342C25.8057 16.8131 26.9679 16.7375 27.8521 16.2081C27.8395 16.2081 27.8395 16.1955 27.8269 16.1955C27.7763 16.1577 27.7258 16.1199 27.6627 16.0821C27.3974 15.9056 27.17 15.8426 26.9805 15.9056C26.9047 15.9308 26.8289 15.893 26.791 15.8174C26.7531 15.7418 26.791 15.6661 26.8542 15.6283C27.2963 15.3762 27.8142 15.2755 28.3195 15.3511C28.5469 15.3763 28.6985 15.4897 28.7364 15.6536C28.7743 15.8552 28.6227 16.0065 28.5722 16.0443C28.5217 16.0947 28.4711 16.1451 28.408 16.1829C28.4459 16.1955 28.4964 16.2207 28.5343 16.2207C28.7112 16.2711 28.9006 16.2459 29.0775 16.1703C29.1028 16.0947 29.1154 16.0064 29.128 15.9056C29.1407 15.83 29.1407 15.7418 29.1659 15.6536C29.2038 15.4771 29.3428 15.3258 29.4944 15.2754C29.6081 15.2376 29.7218 15.2502 29.8228 15.3132C29.9112 15.3762 29.9618 15.4645 29.9618 15.5653C29.987 15.7544 29.8734 15.9434 29.7723 16.0443C29.4059 16.435 28.888 16.624 28.4585 16.5106C28.3448 16.4854 28.2311 16.435 28.1301 16.372C27.1321 17.0274 25.7804 17.1282 24.7193 16.5862C24.4287 16.3972 24.1382 16.2081 23.8729 15.956L23.5445 16.5988C23.4939 16.6997 23.4055 16.8509 23.2539 16.9266C23.1781 16.9518 23.1149 16.9644 23.0644 16.9644ZM27.549 15.6662C27.6374 15.704 27.7258 15.7544 27.8142 15.8174C27.8648 15.8552 27.9279 15.893 27.9785 15.9308C28.0164 15.9561 28.0543 15.9813 28.0922 16.0065C28.168 15.9434 28.2564 15.8804 28.3322 15.8048C28.4206 15.7166 28.408 15.6914 28.408 15.6914C28.408 15.6788 28.3701 15.6535 28.2564 15.6283C28.0164 15.6031 27.7763 15.6032 27.549 15.6662ZM29.5954 15.5527C29.5954 15.5527 29.5828 15.5527 29.5702 15.5527C29.507 15.5779 29.4438 15.6535 29.4312 15.7166C29.4186 15.7796 29.4059 15.8552 29.4059 15.9182C29.4059 15.9308 29.4059 15.9308 29.4059 15.9434C29.4438 15.9056 29.4817 15.8678 29.5196 15.83C29.5828 15.7544 29.6333 15.6535 29.6333 15.5905C29.6333 15.5653 29.6207 15.5653 29.6207 15.5527C29.6207 15.5527 29.6081 15.5527 29.5954 15.5527Z" fill="white"/>
<path d="M31.0623 17.5822C30.9865 17.5822 30.9234 17.5317 30.9107 17.4561L30.8349 17.0024C30.8223 17.0024 30.8097 16.9898 30.8097 16.9898C30.3423 16.7755 30.077 16.2084 30.0896 15.4647C30.0896 15.3387 30.1023 15.2126 30.1023 15.0866C30.1275 14.6707 30.1528 14.2799 30.0012 13.9396C29.9633 13.864 30.0012 13.7758 30.077 13.738C30.1528 13.7002 30.2412 13.738 30.2791 13.8136C30.456 14.2296 30.4307 14.6707 30.4054 15.0992C30.3928 15.2252 30.3928 15.3513 30.3928 15.4647C30.3928 15.6664 30.4054 16.2966 30.7591 16.5991L30.6202 15.7672C30.6076 15.7042 30.5823 15.5656 30.6707 15.4647C30.7844 15.3261 30.9865 15.3639 31.0497 15.3765L33.3235 15.8428C33.3867 15.8554 33.4246 15.8932 33.4372 15.9563C33.4499 16.0193 33.4246 16.0697 33.3867 16.1075C32.9825 16.4352 32.5403 16.6999 32.0603 16.8889C31.8203 16.9898 31.4918 17.1032 31.1508 17.078L31.2013 17.3931C31.2139 17.4813 31.1634 17.5569 31.075 17.5695C31.0876 17.5695 31.075 17.5822 31.0623 17.5822ZM31.1129 16.7629C31.3402 16.8007 31.6055 16.7503 31.9466 16.6117C32.2877 16.473 32.6288 16.284 32.9319 16.0697L30.9992 15.679C30.9613 15.6664 30.936 15.6664 30.9234 15.6664C30.9234 15.679 30.9234 15.6916 30.936 15.7168L31.1129 16.7629Z" fill="white"/>
<path d="M23.5328 14.8976C23.6465 14.7841 23.8234 14.7841 23.9244 14.8976C24.0381 15.011 24.0381 15.1875 23.9244 15.2883C23.8107 15.4017 23.6339 15.4017 23.5328 15.2883C23.4318 15.1875 23.4318 15.011 23.5328 14.8976Z" fill="white"/>
<path d="M23.9622 14.8976C24.0759 14.7841 24.2528 14.7841 24.3538 14.8976C24.4675 15.011 24.4675 15.1875 24.3538 15.2883C24.2401 15.4017 24.0633 15.4017 23.9622 15.2883C23.8485 15.1875 23.8485 15.011 23.9622 14.8976Z" fill="white"/>
<path d="M23.0794 19.9642C23.1931 19.8508 23.37 19.8508 23.471 19.9642C23.5847 20.0777 23.5847 20.2541 23.471 20.3549C23.3573 20.4684 23.1805 20.4684 23.0794 20.3549C22.9657 20.2541 22.9657 20.0777 23.0794 19.9642Z" fill="white"/>
<path d="M23.7477 19.9642C23.8614 19.8508 24.0382 19.8508 24.1393 19.9642C24.253 20.0777 24.253 20.2541 24.1393 20.3549C24.0256 20.4684 23.8487 20.4684 23.7477 20.3549C23.6466 20.2541 23.6466 20.0777 23.7477 19.9642Z" fill="white"/>
<path d="M26.6149 19.3468C26.7286 19.2334 26.9054 19.2334 27.0065 19.3468C27.1202 19.4602 27.1202 19.6367 27.0065 19.7375C26.8928 19.8509 26.7159 19.8509 26.6149 19.7375C26.5138 19.6367 26.5138 19.4602 26.6149 19.3468Z" fill="white"/>
<path d="M21.8414 17.4308C21.9551 17.3173 22.132 17.3173 22.233 17.4308C22.3467 17.5442 22.3467 17.7207 22.233 17.8215C22.1193 17.9349 21.9425 17.9349 21.8414 17.8215C21.7404 17.7207 21.7404 17.5442 21.8414 17.4308Z" fill="white"/>
<path d="M22.056 18.1241C22.1697 18.0107 22.3465 18.0107 22.4476 18.1241C22.5613 18.2376 22.5613 18.414 22.4476 18.5149C22.3339 18.6283 22.157 18.6283 22.056 18.5149C21.9423 18.414 21.9423 18.2376 22.056 18.1241Z" fill="white"/>
<path d="M21.7013 20.5564C21.6887 20.5564 21.676 20.5564 21.676 20.5564C21.4992 20.5438 21.3602 20.4178 21.2465 20.1909C21.0444 19.7876 20.9434 19.3338 20.9434 18.8675C20.9434 18.7793 21.0192 18.7163 21.0949 18.7163C21.1834 18.7163 21.2465 18.7919 21.2465 18.8675C21.2339 19.2708 21.335 19.6741 21.5118 20.0397C21.575 20.1657 21.6381 20.2287 21.7013 20.2413C21.7645 20.2539 21.8403 20.1783 21.9413 20.0145L22.4087 19.2204C22.4845 19.0818 22.5856 18.9305 22.7119 18.8045C22.8761 18.6533 23.0656 18.5776 23.2551 18.6028C23.5078 18.628 23.6846 18.8045 23.8236 18.9557C23.9373 19.0692 24.0383 19.17 24.152 19.2204C24.3289 19.2834 24.5184 19.1952 24.6447 19.0944C24.8089 18.9683 24.9226 18.7667 25.0363 18.6028C25.0742 18.5398 25.1121 18.4768 25.1879 18.4138C25.2889 18.3382 25.4279 18.3255 25.529 18.3886C25.6553 18.4642 25.6679 18.6154 25.6679 18.7036V18.7541C25.6806 18.8927 25.8448 19.0062 25.9964 19.0062C26.1606 19.0062 26.3122 18.8801 26.388 18.7163C26.4511 18.5524 26.4511 18.3634 26.3753 18.1743C26.3374 18.0987 26.3753 18.0105 26.4638 17.9726C26.5396 17.9474 26.628 17.9727 26.6659 18.0609C26.7796 18.3256 26.7796 18.6154 26.6785 18.8423C26.5648 19.1196 26.2995 19.3087 26.009 19.3213C25.6932 19.3213 25.4026 19.0944 25.3647 18.7919V18.7289C25.3647 18.7163 25.3647 18.6911 25.3647 18.6785C25.3395 18.7037 25.3142 18.7289 25.3016 18.7667C25.1879 18.9557 25.0489 19.1826 24.8468 19.3465C24.6068 19.5355 24.3036 19.6112 24.0636 19.5229C23.8741 19.4599 23.7351 19.3086 23.6088 19.1826C23.4825 19.044 23.3688 18.9305 23.2298 18.9179C23.1288 18.9053 23.0277 18.9557 22.9267 19.044C22.8256 19.1322 22.7498 19.2582 22.674 19.3843L22.2066 20.1783C22.1308 20.2917 21.9666 20.5564 21.7013 20.5564Z" fill="white"/>
<path d="M27.5758 18.4268C27.74 18.326 27.8285 18.1117 27.7906 17.9226C27.74 17.6202 27.4369 17.4311 27.3232 17.1538C27.2853 18.3764 27.2853 19.5486 27.4242 20.7711C27.1337 21.0862 26.7042 21.2753 26.2873 21.1618C26.4515 21.0862 26.6284 21.0484 26.78 20.9476C26.9316 20.8467 27.0579 20.6703 27.02 20.4938C26.9821 20.3048 26.7926 20.1913 26.6157 20.1409C26.2999 20.0401 25.9715 20.0275 25.6557 20.0905C25.3399 20.1535 25.024 20.267 24.7461 20.4308C24.5187 20.5569 24.2914 20.7207 24.1777 20.9602C24.5187 20.935 24.8851 20.9098 25.1883 21.0862C25.2262 21.1114 25.2641 21.1366 25.2641 21.187C25.2641 21.2122 25.2514 21.2374 25.2388 21.2627C25.1125 21.5021 24.9482 21.729 24.7461 21.9307C24.5566 21.7794 24.405 21.5904 24.304 21.3761C24.165 21.7416 24.2535 22.1701 24.4935 22.46C24.2408 22.6995 24.1019 23.0524 24.0892 23.3801C23.7987 23.6952 23.3944 23.8843 22.9649 23.9221C22.8007 23.9347 22.6365 23.9221 22.4849 23.8717C22.3333 23.8212 22.1944 23.7078 22.1059 23.5692C22.0301 23.4305 22.0175 23.2667 22.0175 23.1028C22.0175 22.813 22.068 22.523 22.1186 22.2584C21.828 22.5987 21.6259 23.0524 21.7143 23.4809C21.8027 23.9599 22.2449 24.3128 22.7249 24.3884C23.205 24.4514 23.6976 24.2624 24.1019 23.9347C24.0008 24.5145 24.3293 25.1195 24.8219 25.4219C25.3272 25.7244 25.9715 25.737 26.5147 25.5354C27.0579 25.3337 27.5127 24.9178 27.8032 24.464C28.0685 24.5397 28.3717 24.464 28.5738 24.3002C28.6622 24.5018 28.877 24.6279 29.0917 24.6531C29.3065 24.6783 29.5339 24.6153 29.736 24.5397C30.4813 24.2498 31.1256 23.6826 31.5045 22.9894C31.4161 23.4179 31.7319 23.8717 32.1488 24.0103C32.5657 24.149 33.0457 23.9977 33.3868 23.7204C33.5763 23.5692 33.7279 23.3675 33.791 23.128C33.8668 22.8886 33.8415 22.6365 33.8163 22.3844C33.7657 21.6534 33.7405 20.935 33.7531 20.2039C33.7657 19.5737 33.8036 18.931 33.5005 18.4016C33.9173 19.2082 34.3468 20.0275 34.5363 20.9097C34.7258 21.792 34.6374 22.7877 34.0942 23.5188C33.7531 23.9725 33.2731 24.3002 32.7678 24.5649C31.7445 25.0943 30.6076 25.4093 29.4581 25.4598C30.1276 25.7118 30.8982 25.6866 31.5803 25.4724C32.2625 25.2581 32.8941 24.88 33.4752 24.4514C34.0184 24.0355 34.549 23.544 34.8143 22.9138C35.1932 22.0441 35.0543 21.0484 34.8521 20.1157C34.7258 19.536 34.5869 18.9562 34.3468 18.4268C34.1068 17.8848 33.7405 17.3933 33.2731 17.053C33.1215 17.179 32.9952 17.3303 32.9067 17.4689C33.2731 19.3469 33.4626 21.2501 33.4499 23.1785C33.2099 23.3171 32.9573 23.4431 32.6794 23.4809C32.4014 23.5062 32.0983 23.4179 31.934 23.2037C31.7824 23.002 31.7572 22.7373 31.7698 22.4978C31.7824 22.2458 31.833 22.0063 31.8203 21.7668C32.1993 21.5778 32.5151 21.2627 32.692 20.8846C32.8688 20.5064 32.8815 20.1913 32.7804 19.7754C32.5909 19.0066 32.0604 18.9057 31.6814 19.183C31.3656 19.4099 31.2013 19.9897 31.2898 20.3048C31.4793 20.4056 31.694 20.393 31.9088 20.4182C32.1235 20.4434 32.3256 20.4308 32.5404 20.4308C32.3635 20.8216 32.0477 21.1367 31.6182 21.3383C31.5045 20.872 31.2771 20.4434 30.974 20.1031C30.8097 20.2418 30.6708 20.4308 30.595 20.6325C30.6076 20.6451 30.6203 20.6577 30.6455 20.6451C30.8476 20.935 31.0119 21.2627 31.075 21.6534C30.8476 21.7542 30.595 21.8173 30.4055 21.8046C30.2792 20.7081 30.2034 19.599 30.2034 18.5025C30.2539 18.4268 30.3044 18.3638 30.3423 18.2756C30.3802 18.1873 30.3929 18.0991 30.355 18.0109C30.3297 17.9353 30.2792 17.8849 30.2286 17.8218C30.0897 17.6454 29.9886 17.4437 29.9128 17.179C29.6981 17.6832 29.7991 18.2503 29.8623 18.7923C30.0013 19.8132 30.0392 20.8341 30.0013 21.8298C29.736 21.8929 29.4581 21.6786 29.3696 21.4265C29.2812 21.1744 29.3191 20.8846 29.4075 20.6199C29.4833 20.3552 29.597 20.1031 29.6349 19.8385C29.3823 20.1157 29.1422 20.4308 29.0159 20.7837C28.8896 21.1366 28.8517 21.54 29.0033 21.8803C29.1675 22.2206 29.5339 22.4727 29.9128 22.4348C29.9255 22.6113 29.9507 22.7877 29.9507 22.9768C29.597 23.2793 29.218 23.5188 28.7885 23.7204C28.6622 23.3801 28.6875 22.9894 28.8517 22.6617C28.738 22.8508 28.6243 23.0398 28.5485 23.2415C28.4727 23.4431 28.4222 23.67 28.4475 23.9095C28.3464 23.9473 28.258 23.9851 28.1064 24.0355C28.1443 23.7456 28.1822 23.4557 28.1443 23.1785C28.1064 22.8886 27.9927 22.6113 27.7779 22.4222C27.5505 22.2332 27.2474 22.1702 26.9442 22.1576C26.2999 22.1323 25.643 22.334 25.024 22.1701C24.9988 22.1449 24.9861 22.0945 25.0114 22.0567C25.0367 22.0189 25.0619 21.9937 25.0998 21.9685C25.2514 21.8299 25.4157 21.7038 25.5799 21.5904C25.6936 21.603 25.8199 21.603 25.9209 21.6156C26.0094 21.729 26.1483 21.792 26.2873 21.792C26.4263 21.792 26.5652 21.7668 26.7042 21.729C27.121 21.5778 27.4874 21.3005 27.7527 20.9476C27.6769 20.0653 27.6516 19.2208 27.5758 18.4268Z" fill="white"/>
<path d="M24.8478 22.6111C24.8857 23.0522 24.6456 23.506 24.2793 23.7328C24.2793 24.2118 24.5825 24.6907 25.0246 24.8924C25.4289 25.0814 25.8963 25.0436 26.3258 24.9428C26.6416 24.8798 26.97 24.779 27.2227 24.5521C26.8058 24.5269 26.4016 24.2874 26.1742 23.9345C25.9468 23.5816 25.9089 23.1152 26.0731 22.7245C25.6689 22.7119 25.252 22.6741 24.8478 22.6111Z" fill="#54CF85"/>
<path d="M26.326 22.7878C26.2502 23.1533 26.4018 23.5692 26.6924 23.8087C26.9829 24.0482 27.4124 24.1112 27.7661 23.9599C27.804 23.7709 27.8293 23.5692 27.8167 23.3802C27.7914 23.1911 27.7156 22.9894 27.564 22.8634C27.4124 22.75 27.2229 22.7248 27.0461 22.7122C26.8061 22.6869 26.566 22.6995 26.326 22.7878Z" fill="#54CF85"/>
<path d="M31.846 19.6114C31.7702 19.624 31.6944 19.687 31.6565 19.75C31.6439 19.7752 31.6313 19.8131 31.6439 19.8383C31.6565 19.8761 31.7071 19.8886 31.7576 19.8886C31.8839 19.8886 32.0102 19.8634 32.1366 19.813C32.1618 19.8004 32.1871 19.7878 32.1997 19.7752C32.2124 19.75 32.2124 19.7122 32.1997 19.687C32.1871 19.6618 32.1618 19.6492 32.1366 19.6366C32.0229 19.5862 31.9218 19.5988 31.846 19.6114Z" fill="#54CF85"/>
<path d="M31.2901 22.0439C31.0248 22.2204 30.6964 22.3212 30.3427 22.3212C30.3427 22.5733 30.3427 22.8128 30.3174 23.027C30.0142 23.4304 29.61 23.7707 29.1426 24.0353C29.2563 24.0858 29.37 24.0605 29.4837 24.0227C30.2163 23.8337 30.9111 23.4429 31.328 22.838C31.328 22.5859 31.328 22.3212 31.2901 22.0439Z" fill="#54CF85"/>
<path d="M28.0064 32.7195C21.5765 32.7195 16.334 27.9174 16.334 22.0062C16.334 16.095 21.5639 11.293 28.0064 11.293C34.449 11.293 39.6789 16.095 39.6789 22.0062C39.6663 27.9048 34.4364 32.7195 28.0064 32.7195ZM28.0064 11.7845C21.8544 11.7845 16.8519 16.3597 16.8519 21.9936C16.8519 27.6275 21.8544 32.2027 28.0064 32.2027C34.1585 32.2027 39.161 27.6275 39.161 21.9936C39.161 16.3597 34.1585 11.7845 28.0064 11.7845Z" fill="#FFEE00"/>
</svg>