<svg width="46" height="36" viewBox="0 0 46 36" fill="none" xmlns="http://www.w3.org/2000/svg">
  <path
    d="M38.9001 0.969971H7.06006C3.61006 0.969971 0.810059 3.76997 0.810059 7.21997V29.63C0.810059 33.08 3.61006 35.88 7.06006 35.88H38.9001C42.3501 35.88 45.1401 33.08 45.1401 29.63V7.21997C45.1401 3.76997 42.3501 0.969971 38.9001 0.969971Z"
    fill="#FFEAD3" />
  <path
    d="M29.7501 21.5201C30.0501 19.5201 29.2701 18.3901 28.4001 17.6501C27.6301 17.0001 26.1701 16.4501 24.6801 17.1701C23.0701 17.9401 21.6001 21.5601 18.1901 19.7901C15.4201 18.3501 16.3601 15.4301 16.7901 14.4201C18.1201 12.4201 20.3901 11.1001 22.9701 11.1001C27.0601 11.1001 30.3801 14.4201 30.3801 18.5101C30.3801 19.5801 30.1501 20.5901 29.7501 21.5101V21.5201Z"
    fill="#EE655C" />
  <path
    d="M29.7501 21.5201C28.6001 24.1201 26.0001 25.9301 22.9701 25.9301C18.8801 25.9301 15.5601 22.6101 15.5601 18.5201C15.5601 17.0101 16.0101 15.6002 16.7901 14.4202C16.3601 15.4302 15.4201 18.3502 18.1901 19.7902C21.6001 21.5502 23.0701 17.9402 24.6801 17.1702C26.1701 16.4502 27.6301 16.9901 28.4001 17.6501C29.2701 18.3901 30.0501 19.5201 29.7501 21.5201Z"
    fill="#3F9CFB" />
  <path
    d="M8.39002 11.82C8.39002 11.82 8.45002 11.86 8.48002 11.86C8.51002 11.86 8.54003 11.85 8.57003 11.82L14.08 6.31C14.08 6.31 14.13 6.18001 14.08 6.13001L13.2 5.25001C13.2 5.25001 13.07 5.20001 13.02 5.25001L7.51002 10.76C7.51002 10.76 7.46002 10.89 7.51002 10.94L8.39002 11.82Z"
    fill="black" />
  <path
    d="M9.08008 12.5101L9.96009 13.3901C9.96009 13.3901 10.0201 13.4301 10.0501 13.4301C10.0801 13.4301 10.1101 13.4201 10.1401 13.3901L15.6501 7.88007C15.6501 7.88007 15.7001 7.75008 15.6501 7.70008L14.7701 6.82007C14.7701 6.82007 14.6401 6.77007 14.5901 6.82007L9.08008 12.3301C9.08008 12.3301 9.03008 12.4601 9.08008 12.5101Z"
    fill="black" />
  <path
    d="M16.3399 8.3899C16.3399 8.3899 16.2099 8.3399 16.1599 8.3899L10.6499 13.8999C10.6499 13.8999 10.5999 14.0299 10.6499 14.0799L11.5299 14.9599C11.5299 14.9599 11.5899 14.9999 11.6199 14.9999C11.6499 14.9999 11.6799 14.9899 11.7099 14.9599L17.2199 9.4499C17.2199 9.4499 17.2699 9.31987 17.2199 9.26987L16.3399 8.3899Z"
    fill="black" />
  <path
    d="M8.56 25.02C8.56 25.02 8.43001 24.97 8.38001 25.02L7.50001 25.9C7.50001 25.9 7.45001 26.03 7.50001 26.08L13.01 31.59C13.01 31.59 13.07 31.63 13.1 31.63C13.13 31.63 13.16 31.62 13.19 31.59L14.07 30.71C14.07 30.71 14.12 30.58 14.07 30.53L8.56 25.02Z"
    fill="black" />
  <path
    d="M9.96009 23.45L9.08008 24.3299C9.08008 24.3299 9.03008 24.46 9.08008 24.51L11.3601 26.79C11.3601 26.79 11.4201 26.8299 11.4501 26.8299C11.4801 26.8299 11.5101 26.82 11.5401 26.79L12.4201 25.9099C12.4201 25.9099 12.4701 25.78 12.4201 25.73L10.1401 23.45C10.1401 23.45 10.0101 23.4 9.96009 23.45Z"
    fill="black" />
  <path
    d="M13.07 26.3899C13.07 26.3899 12.94 26.3399 12.89 26.3899L12.01 27.2699C12.01 27.2699 11.97 27.3299 11.97 27.3599C11.97 27.3899 11.98 27.4199 12.01 27.4499L14.59 30.0299C14.59 30.0299 14.65 30.0699 14.68 30.0699C14.71 30.0699 14.74 30.0599 14.77 30.0299L15.65 29.1499C15.65 29.1499 15.7 29.0199 15.65 28.9699L13.08 26.3999L13.07 26.3899Z"
    fill="black" />
  <path
    d="M11.7099 21.8801C11.7099 21.8801 11.5799 21.8301 11.5299 21.8801L10.6499 22.7601C10.6499 22.7601 10.5999 22.8901 10.6499 22.9401L16.1599 28.4501C16.1599 28.4501 16.2199 28.4901 16.2499 28.4901C16.2799 28.4901 16.3099 28.4801 16.3399 28.4501L17.2199 27.5701C17.2199 27.5701 17.2599 27.5101 17.2599 27.4801C17.2599 27.4501 17.2499 27.4201 17.2199 27.3901L11.7099 21.8801Z"
    fill="black" />
  <path
    d="M34.4101 8.85001C34.4101 8.85001 34.4701 8.89002 34.5001 8.89002C34.5301 8.89002 34.5601 8.88001 34.5901 8.85001L35.4701 7.97001C35.4701 7.97001 35.5101 7.91001 35.5101 7.88001C35.5101 7.85001 35.5001 7.82001 35.4701 7.79001L32.9201 5.24C32.9201 5.24 32.7901 5.19 32.7401 5.24L31.86 6.12C31.86 6.12 31.8201 6.18 31.8201 6.21C31.8201 6.24 31.83 6.26999 31.86 6.29999L34.4101 8.85001Z"
    fill="black" />
  <path
    d="M34.9199 9.3201C34.9199 9.3201 34.9299 9.3801 34.9599 9.4101L37.3799 11.8301C37.3799 11.8301 37.4399 11.8701 37.4699 11.8701C37.4999 11.8701 37.5299 11.8601 37.5599 11.8301L38.4399 10.9501C38.4399 10.9501 38.4899 10.8201 38.4399 10.7701L36.0199 8.3501C36.0199 8.3501 35.8899 8.3001 35.8399 8.3501L34.9599 9.23011C34.9599 9.23011 34.9199 9.2901 34.9199 9.3201Z"
    fill="black" />
  <path
    d="M35.8101 13.3901C35.8101 13.3901 35.8701 13.4301 35.9001 13.4301C35.9301 13.4301 35.9601 13.4201 35.9901 13.3901L36.8701 12.5101C36.8701 12.5101 36.9201 12.3801 36.8701 12.3301L31.3601 6.82007C31.3601 6.82007 31.2301 6.77007 31.1801 6.82007L30.3001 7.70008C30.3001 7.70008 30.2501 7.83007 30.3001 7.88007L35.8101 13.3901Z"
    fill="black" />
  <path
    d="M31.2699 11.9999C31.2699 11.9999 31.3299 12.0399 31.3599 12.0399C31.3899 12.0399 31.42 12.0299 31.45 11.9999L32.3299 11.1199C32.3299 11.1199 32.3799 10.9899 32.3299 10.9399L29.7799 8.3899C29.7799 8.3899 29.6499 8.3399 29.5999 8.3899L28.7199 9.26987C28.7199 9.26987 28.6799 9.32987 28.6799 9.35987C28.6799 9.38987 28.6899 9.4199 28.7199 9.4499L31.2699 11.9999Z"
    fill="black" />
  <path
    d="M34.32 14.9999C34.32 14.9999 34.38 14.9899 34.41 14.9599L35.29 14.0799C35.29 14.0799 35.33 14.0199 35.33 13.9899C35.33 13.9599 35.32 13.9299 35.29 13.8999L32.87 11.4799C32.87 11.4799 32.81 11.4399 32.78 11.4399C32.75 11.4399 32.72 11.4499 32.69 11.4799L31.81 12.3599C31.81 12.3599 31.77 12.42 31.77 12.45C31.77 12.48 31.78 12.5099 31.81 12.5399L34.23 14.9599C34.23 14.9599 34.29 14.9999 34.32 14.9999Z"
    fill="black" />
  <path
    d="M34.6199 27.96C34.6199 27.96 34.4899 27.91 34.4399 27.96L31.8699 30.53C31.8699 30.53 31.8199 30.66 31.8699 30.71L32.7499 31.59C32.7499 31.59 32.8099 31.63 32.8399 31.63C32.8699 31.63 32.8999 31.62 32.9299 31.59L35.4999 29.02C35.4999 29.02 35.5499 28.89 35.4999 28.84L34.6199 27.96Z"
    fill="black" />
  <path
    d="M37.5601 25.02C37.5601 25.02 37.5001 24.98 37.4701 24.98C37.4401 24.98 37.4101 24.99 37.3801 25.02L35.1001 27.3C35.1001 27.3 35.0601 27.36 35.0601 27.39C35.0601 27.42 35.0701 27.45 35.1001 27.48L35.9801 28.36C35.9801 28.36 36.0401 28.4 36.0701 28.4C36.1001 28.4 36.1301 28.39 36.1601 28.36L38.4401 26.08C38.4401 26.08 38.4901 25.95 38.4401 25.9L37.5601 25.02Z"
    fill="black" />
  <path
    d="M33.96 27.3599C33.96 27.3599 33.95 27.2999 33.92 27.2699L33.04 26.3899C33.04 26.3899 32.91 26.3399 32.86 26.3899L30.29 28.9599C30.29 28.9599 30.24 29.0899 30.29 29.1399L31.17 30.0199C31.17 30.0199 31.23 30.0599 31.26 30.0599C31.29 30.0599 31.32 30.0499 31.35 30.0199L33.93 27.4499C33.93 27.4499 33.97 27.3899 33.97 27.3599H33.96Z"
    fill="black" />
  <path
    d="M34.41 26.79C34.41 26.79 34.47 26.8299 34.5 26.8299C34.53 26.8299 34.56 26.82 34.59 26.79L36.87 24.51C36.87 24.51 36.92 24.3799 36.87 24.3299L35.99 23.45C35.99 23.45 35.86 23.4 35.81 23.45L33.53 25.73C33.53 25.73 33.48 25.8599 33.53 25.9099L34.41 26.79Z"
    fill="black" />
  <path
    d="M32.35 25.7001L31.47 24.8201C31.47 24.8201 31.34 24.7701 31.29 24.8201L28.72 27.3901C28.72 27.3901 28.67 27.5201 28.72 27.5701L29.6 28.4501C29.6 28.4501 29.66 28.4901 29.69 28.4901C29.72 28.4901 29.75 28.4801 29.78 28.4501L32.35 25.8801C32.35 25.8801 32.4 25.7501 32.35 25.7001Z"
    fill="black" />
  <path
    d="M32.8299 25.2201C32.8299 25.2201 32.8899 25.2601 32.9199 25.2601C32.9499 25.2601 32.9799 25.2501 33.0099 25.2201L35.2899 22.9401C35.2899 22.9401 35.3299 22.8801 35.3299 22.8501C35.3299 22.8201 35.3199 22.7901 35.2899 22.7601L34.4099 21.8801C34.4099 21.8801 34.2799 21.8301 34.2299 21.8801L31.9499 24.1601C31.9499 24.1601 31.9099 24.2201 31.9099 24.2501C31.9099 24.2801 31.9199 24.3101 31.9499 24.3401L32.8299 25.2201Z"
    fill="black" />
</svg>