<svg width="56" height="44" viewBox="0 0 56 44" fill="none" xmlns="http://www.w3.org/2000/svg">
<path d="M48.1173 0H7.89533C3.53711 0 0 3.52907 0 7.87739V36.1226C0 40.4709 3.53711 44 7.89533 44H48.1173C52.4755 44 56 40.4709 56 36.1226V7.87739C56 3.52907 52.4755 0 48.1173 0Z" fill="#EE655C"/>
<path d="M36.0801 19.9017L35.5117 21.5654L36.5602 22.977C36.737 23.2165 36.5602 23.5442 36.2696 23.5442L34.5137 23.519L33.5031 24.9559C33.3389 25.1953 32.9599 25.1323 32.8715 24.855L32.3535 23.1787L30.6734 22.662C30.3955 22.5737 30.3324 22.2082 30.5724 22.0318L32.0125 21.0235L31.9872 19.2715C31.9872 18.9816 32.3156 18.8052 32.5556 18.9816L33.9705 20.0278L35.638 19.4606C35.9159 19.3723 36.1812 19.637 36.0928 19.9143L36.0801 19.9017Z" fill="white"/>
<path d="M27.894 31.6358C22.5504 31.6358 18.2301 27.3127 18.2301 21.9938C18.2301 16.675 22.5631 12.3519 27.894 12.3519C28.9804 12.3519 30.0162 12.5284 30.9763 12.8561C29.2204 11.6839 27.1108 11.0033 24.8495 11.0033C18.7607 11.0033 13.834 15.9314 13.834 21.9938C13.834 28.0563 18.7733 32.9844 24.8495 32.9844C27.1234 32.9844 29.2204 32.3038 30.9763 31.1316C30.0036 31.4593 28.9677 31.6358 27.894 31.6358Z" fill="white"/>
</svg>
